<svg id="Layer_1" data-name="Layer 1" xmlns="http://www.w3.org/2000/svg" xmlns:xlink="http://www.w3.org/1999/xlink" viewBox="0 0 894.21 208.39"><defs><style>.cls-1,.cls-2{fill:teal;}.cls-2,.cls-3,.cls-4,.cls-5,.cls-6{fill-rule:evenodd;}.cls-3{fill:#4bb4a9;}.cls-4{fill:url(#linear-gradient);}.cls-5{fill:#fff;}.cls-6{fill:#071e1b;}</style><linearGradient id="linear-gradient" x1="76.93" y1="-232.65" x2="178.32" y2="-157.24" gradientTransform="matrix(1, 0, 0, -1, 0, -125.54)" gradientUnits="userSpaceOnUse"><stop offset="0" stop-color="#fff"/><stop offset="1"/></linearGradient></defs><path class="cls-1" d="M262.07,112c3.64,6.83,7.83,10.37,13.13,10.37,5.07,0,9.15-3.31,9.15-7.4,0-2.86-1.87-6.17-5.07-8.82C262.84,92.4,253.14,84.9,253.14,73.65s9.81-20,21.72-20c10,0,16.66,5.4,22.94,12.68l-11.24,9.92c-3.76-5.29-7.62-8.16-11.92-8.16-4,0-6.73,2.32-6.73,5.52s2.32,5.07,4.64,7c14.78,13,26.58,19.2,26.58,33.64,0,13.24-9.93,22.5-24.27,22.5-11.58,0-19.63-5.62-25.47-17.2Z"/><path class="cls-1" d="M329.35,82.69c5.3-5.29,11.37-7.94,18.42-7.94,15.11,0,27.68,12.57,27.68,30.88,0,18-13.12,30.77-28,30.77-7.39,0-12.79-2.65-18.09-7.72v27.57H314.69v-80h14.66Zm-.66,22.72c0,10.59,7.06,17.54,16.1,17.54s15.89-7.39,15.89-17.43c0-9.59-6.18-17.32-15.89-17.32C335.42,88.2,328.69,95.15,328.69,105.41Z"/><path class="cls-1" d="M502.53,128.68c-5.19,5.07-10.7,7.72-18.09,7.72-14.89,0-27.91-12.79-27.91-30.77,0-18.31,12.36-30.88,27.58-30.88,7.06,0,13.12,2.65,18.42,7.94v-29H517.2v81.17H502.53Zm-31.22-23.16c0,10,6.62,17.43,15.77,17.43s16.11-6.84,16.11-17.54c0-10.26-6.84-17.21-16.11-17.21C477.38,88.2,471.31,95.93,471.31,105.52Z"/><path class="cls-1" d="M549.41,82.25c5.62-4.74,10.81-7.5,17.32-7.5,10.91,0,20.07,7.5,20.07,20.07v40H572.13V107.17c0-11.58-1-19-9.93-19a11.49,11.49,0,0,0-9.92,5.63c-3,4.74-2.87,10-2.87,16.1v24.93H534.74V76.29h14.67Z"/><path class="cls-1" d="M618.9,61.84a9.37,9.37,0,0,1-9.38,9.38c-5.4,0-9.37-4.74-9.37-10.15a9.13,9.13,0,0,1,9.37-8.93A9.51,9.51,0,0,1,618.9,61.84ZM602.25,76.29h14.66v58.57H602.25Z"/><path class="cls-1" d="M633,53.69h14.67v46.76l21.72-24.16h18.31l-25.14,28.13,28.23,30.44h-18.2l-24.92-27v27H633Z"/><path class="cls-1" d="M702,55.67h7.94v71.47h30.44v7.72H702Z"/><path class="cls-1" d="M805.42,76.29h7.39v58.57h-7.39v-10c-6.4,7.72-14.45,11.47-23.61,11.47-17.09,0-30-14.23-30-30.88S765.05,74.75,782,74.75c9.49,0,17.54,4.08,23.39,12.24Zm-45.88,29.34c0,12.68,9.92,23.82,23.05,23.82,12,0,23.38-9,23.38-23.6C806,92.28,795.82,82,782.7,82,769.24,82,759.54,93.06,759.54,105.63Z"/><path class="cls-1" d="M840.61,134.86h-7.5V53.69h7.5V86.33C847,78.61,855,74.75,864.1,74.75c17.1,0,30.11,14.23,30.11,30.88S881,136.4,863.88,136.4c-9.48,0-17.32-4.19-23.27-12.35Zm45.88-29.45c0-12.68-10-23.82-23.16-23.82-12,0-23.27,8.93-23.27,23.6,0,13.57,10,23.93,23.27,23.93C876.9,129.12,886.49,118,886.49,105.41Z"/><path class="cls-1" d="M427.49,128.85c-5.62,4.74-10.8,7.5-17.31,7.5-10.92,0-20.07-7.5-20.07-20.08v-40h14.66v27.68c0,11.58,1,19,9.93,19a11.51,11.51,0,0,0,9.93-5.62c3-4.74,2.86-10,2.86-16.11V76.24h14.67V134.8H427.49Z"/><path class="cls-2" d="M173.75,0H81C74.28,0,71,3.83,67.49,8.22S13.1,83,10,87.38s-2.8,11.35,0,16.44c0,0,34.3,75.73,37.22,82.16s7.95,8.22,13.54,8.22h83.49A15.49,15.49,0,0,0,157.77,186L213,85.1c2.8-5.09,1.68-12.5,0-16.44L187.28,8.22A15.49,15.49,0,0,0,173.75,0Z"/><path class="cls-3" d="M60.75,188.91c-4.71,0-7.32-1.51-9-5.21-2.89-6.36-36.88-81.4-37.22-82.16l-.09-.18-.1-.19C12.42,97.66,12.27,93,14,90.55c3-4.26,53.94-74.62,57.35-78.95S76.78,5.29,81,5.29h92.72a10.54,10.54,0,0,1,9.06,5.37l25.62,60.16c1.17,2.74,2,8.33.24,11.63L153.41,183.34a10.52,10.52,0,0,1-9.17,5.57Z"/><path id="spud_blob" data-name="spud blob" class="cls-4" d="M111.53,31c-14.85,15-18,18.67-23.06,24.36-3,4.73-6.16,19.85-7.26,26.41-2.66,16.74-.48,32.24,1.86,49.47,10.71,6.44,15.27,3.5,24.92-1.12l6.51-2.78c33.09-14.12,57.28-37.76,55.05-39.06C172,86.08,174.29,74.8,175.5,71l5.58-16.74c1.3-6.56-2.05-12.29-3.72-16.37C174.54,31,172,22.17,165.09,19.45c-25.17-7.15-31-9.74-36.64-4.83"/><path id="spudblob_fill" data-name="spudblob fill" class="cls-5" d="M111.53,31c-14.85,15-18,18.67-23.06,24.36-3,4.73-6.16,19.85-7.26,26.41-2.66,16.74-.48,32.24,1.86,49.47,10.71,6.44,15.27,3.5,24.92-1.12l6.51-2.78c33.09-14.12,57.28-37.76,55.05-39.06C172,86.08,174.29,74.8,175.5,71l5.58-16.74c1.3-6.56-2.05-12.29-3.72-16.37C174.54,31,172,22.17,165.09,19.45c-25.17-7.15-31-9.74-36.64-4.83"/><path class="cls-6" d="M182.94,55.16c1.34-7-3.22-16.55-5.39-20.83-2.71-5.34-4.9-13.11-9.67-16.37-7.38-5-22.82-7.75-35.34-7.62-11.5,5.71-20.16,19-30.5,26.22-3.61,2.54-11.43,3.09-14.32,6.14l-2.6,6.88L5.51,129.83l.12.08a3.51,3.51,0,1,0,1.4,2.8,3.5,3.5,0,0,0-.59-1.94h0l74.4-55.35-8,38.87L74,132.52c-.53,2.22-2.7,4.07-3.9,5.77L59.27,153.54C47.38,170.36,38.72,185,26.93,201.74a3.46,3.46,0,0,0-1.57-.37,3.5,3.5,0,1,0,2.83,1.43C48.76,182.11,66.28,163.39,87,142.56l7.44-1.11,5.21-1.86,36.07-14h.19l-23.34,51.81a3.51,3.51,0,1,0,1.48.86l48.27-73.68c2.61-3.37,8.63-3.94,11.9-6.7l5.58-9.85q.74-5.77,1.49-11.53c-.2-1.94-1.73-3.65-1.3-6.14ZM127,17.41l8.93-4.47,11.53,2.42-3.53,9.11-7.63,3.72c-7.91,4-14.24,6.92-26.22,7.26ZM84.56,68.18l1.86-8.74c.5,3,1,6.07,1.49,9.11,3.73,19-4.16,35.11-4.84,53.19l-.93-18C80.1,90.82,82,78.48,84.56,68.18Zm39.24,54.49.19-.38h.18Zm31.43-22.51-11,9.86-18,10H126l1.86-13.2,10.79-15.25,18.78-8.56c3.84,1.13,6.48,5.6,8.56,8.56Zm14.88-12.27-.56.37L158,81.57c-1.57-.24-19.23,7.89-20.64,9.11l-3.16,4.83c-4.13,5.87-8.14,11.86-11.91,18.23l-7.62,13.39-17.3,8c-4.2.8-12.08-2.3-14.32-3.91Q87,106.49,90.89,81.75C92,75,86.13,59.86,88.47,55.53L103,40.84l20.46-5,20.83-9.67q3.06-4.93,6.14-9.86L157.83,18l7.07,1.49c6.54,2.7,9.63,12.72,12.28,19.34,1.6,4,5,9.78,3.72,16Q175.5,71.33,170.11,87.89Z"/><path class="cls-6" d="M151.7,47c11,.19,14.25-1.65,15.81-11.16l-7.26-1.12C156.57,39.19,153,39.43,151.7,47Z"/><path class="cls-6" d="M117.66,84.17c-6.3,1.93-11.07,5.79-12.83,12.46q-.64,5.12-1.3,10.23V108L114,105.56c2.68-2.1,4-9.73,6.13-12.84L129,83.43h-2.42Z"/><path class="cls-6" d="M118.22,47.72l.56-.56c-1.7-.88-3.19-2.4-5.39-2.6l-9.3,3.35-6.88,10.6-.93,8.55,7.81-8.18C108,55.08,115.75,52.78,118.22,47.72Z"/></svg>